# xmcd
#
# Track frame offsets: 
#        183
#        19445
#        37580
#        54770
#        74900
#        96358
#        117048
#        135718
#        156670
#        180838
#        202865
#        224745
#        238528
#        262025
#        285358
#
# Disc length: 4108 seconds
#
# Revision: 4
# Processed by: cddbd v1.5.2PL0 Copyright (c) Steve Scherf et al.
# Submitted via: ExactAudioCopy v0.95b4
#
DISCID=d8100a0f
DTITLE=張學友 - 等你等到我心痛張學友精選
DYEAR=1992
DGENRE=Pop
TTITLE0=等你等到我心痛
TTITLE1=總有一天等到你
TTITLE2=一生不醉醒
TTITLE3=愛火花
TTITLE4=分手總要在雨天
TTITLE5=明日世界終結時
TTITLE6=情網
TTITLE7=情濃半生
TTITLE8=還是覺得你最好
TTITLE9=愛得比你深
TTITLE10=日出時讓戀愛終結
TTITLE11=留住秋色
TTITLE12=祇想一生跟你走
TTITLE13=真情流露
TTITLE14=吻別
EXTD=YEAR: 1993
EXTT0=
EXTT1=
EXTT2=
EXTT3=
EXTT4=
EXTT5=
EXTT6=
EXTT7=
EXTT8=
EXTT9=
EXTT10=
EXTT11=
EXTT12=
EXTT13=
EXTT14=
PLAYORDER=
